<?xml version="1.0" encoding="UTF-8"?>
<svg id="Camada_2" xmlns="http://www.w3.org/2000/svg" viewBox="0 0 170.97 190.99">
  <defs>
    <style>
      .cls-1 {
        fill: #51bcbd;
      }

      .cls-2 {
        fill: #eff3fa;
      }
    </style>
  </defs>
  <g id="Camada_1-2" data-name="Camada_1">
    <g>
      <path class="cls-2" d="M122.7,0H48.27C21.65,0,0,21.81,0,48.62v120.47c0,8.08,4.4,15.48,11.47,19.3,3.14,1.7,6.69,2.6,10.27,2.6,4.29,0,8.46-1.27,12.05-3.67l36.43-24.47h52.48c26.62,0,48.27-21.81,48.27-48.62V48.62c0-26.81-21.65-48.62-48.27-48.62ZM167.48,114.23c0,24.87-20.08,45.1-44.77,45.1h-53.54l-37.31,25.06c-3.01,2.01-6.51,3.08-10.11,3.08-3,0-5.98-.75-8.62-2.18-5.94-3.21-9.63-9.42-9.63-16.2V48.62C3.5,23.75,23.58,3.52,48.27,3.52h74.43c24.69,0,44.77,20.23,44.77,45.1v65.6Z"/>
      <g>
        <path class="cls-1" d="M136.32,145.43c-18.82,3.82-4.47-34.34-25.09-36.48-20.62-2.14-60.04,59.94-89.93,14.73-3.88-5.87-8.34-10.73-13.17-14.75v16.3c2.2,2.39,4.28,5.01,6.21,7.88,29.21,43.38,71.29-17.33,93.08-15.93,17.79,1.14,11.47,28.5,18.78,36.31,16.13-2.39,29.37-13.77,34.43-28.88-5.17,7.06-13.11,18.55-24.31,20.82Z"/>
        <path class="cls-1" d="M126.39,76.26c-15.92-5.12-44.7,62.46-77.35,9.93-10.65-17.13-25.6-27.11-40.91-32.79v12.97c12.79,5.7,24.95,14.82,33.99,29.16,31.96,50.7,63.4-15.51,80.49-11.13,17.1,4.38,2.88,34.73,21.7,31.66,7.88-1.29,13.9-6.88,18.54-11.96v-6.64c-4.19,4.02-9.38,7.88-15.89,8.85-18.82,2.83-4.65-24.92-20.57-30.05Z"/>
        <path class="cls-1" d="M130.65,63.68c-15.44-6.24-40.15,54.88-74.47,7.29-12.39-17.17-29.37-27.14-46.14-32.85-.31,1-.58,2.01-.82,3.04,17.37,5.58,34.77,16.19,46.74,35.71,33.34,54.36,59.45-14.59,74.2-8.73,14.75,5.87.62,31.02,19.44,28.44,5.24-.72,9.59-3.27,13.25-6.22v-3.51c-3.37,2.09-7.3,3.77-11.91,4.17-17.88,1.55-5.9-21.56-20.29-27.34Z"/>
        <path class="cls-1" d="M141.65,125.83c-18.82,3.32-4.56-29.63-22.83-33.26-18.27-3.63-52.37,61.2-83.64,12.33-7.39-11.55-16.88-19.56-27.06-25.07v14.1c7.51,4.99,14.43,11.61,20.12,20.34,30.58,47.04,67.34-16.42,86.79-13.53,19.45,2.88,5.14,38.44,23.96,34.87,10.76-2.04,18.35-12.42,23.49-19.01.24-1.85.37-3.73.37-5.64v-.66c-4.98,6.01-11.83,13.87-21.19,15.52Z"/>
        <path class="cls-1" d="M133.39,37.42c-19.61-8.42-44.35,7.72-76.07-1.28-14-3.97-27.18-8.52-39.01-13.08-.71.84-1.4,1.71-2.05,2.61,12.7,5.16,26.58,10.95,40.58,17.07,33.22,14.52,56.89-8.19,75.81-.15,12.62,5.36,11.7,19.09,24.57,21.84,1.99.43,3.87.74,5.63.97v-6.15c-1.29-.33-2.63-.68-4.03-1.09-11.85-3.43-13.15-15.48-25.42-20.75Z"/>
        <path class="cls-1" d="M153.68,79.75c-15.92-.35-8.32-19.51-22-25.14-16.84-6.94-39.7,38.27-75,4.44-13.13-12.58-28.97-21.15-44.25-26.98-.48.99-.92,1.99-1.33,3.02,16.08,5.81,32.54,15.11,45.31,29.96,35.01,40.72,58.59-12.45,74.73-5.87,14.03,5.72,4.24,26.82,21.15,26.24,3.99-.14,7.48-1.14,10.55-2.49v-4.33c-2.73.75-5.77,1.23-9.17,1.15Z"/>
        <path class="cls-1" d="M95.95,141.97c-19.91.66-55.11,35.78-82.44,32.35,1.27,1.28,2.74,2.38,4.37,3.26,2.73,1.47,5.73,2.19,8.72,2.19,3.58,0,7.14-1.04,10.24-3.09l34.06-22.72h39.85c-2.29-6.97-6.3-12.26-14.8-11.98Z"/>
        <path class="cls-1" d="M132.23,46.85c-18.23-7.67-41.14,22.16-75.54,1.58-13.78-8.24-28.31-15.09-41.88-20.63-.44.69-.86,1.4-1.26,2.12,14.43,5.75,29.63,13.51,43.1,23.9,35.11,27.07,57.73-10.31,75.27-3.01,13.32,5.55,7.95,22.82,22.86,24.04,2.94.24,5.62.12,8.06-.19v-4.35c-2.12-.01-4.42-.16-6.9-.52-13.89-2.02-10.74-17.49-23.71-22.94Z"/>
        <path class="cls-1" d="M60.28,12.16c28.03-4.66,55.22-4.04,76.88,5.56,8.06,3.55,14.31,8.34,20.53,12.66-7.28-13.43-21.5-22.57-37.81-22.57H51.1c-7.43,0-14.43,1.9-20.54,5.23,8.78,1.07,18.65.95,29.71-.89Z"/>
        <path class="cls-1" d="M135.82,24.5c-20.98-9.18-47.73-4.59-76.61-4.14-12.72.2-24.05-1.3-34.05-3.81-1.33,1.01-2.61,2.1-3.81,3.26,10.94,3.67,23.28,6.77,36.86,8.58,30.19,4.04,56.04-6.09,76.34,2.71,11.93,5.17,15.41,15.61,26.28,19.65.69.25,1.35.5,2.01.74v-.69c0-2.8-.27-5.53-.78-8.18-9.37-4.71-15.01-13.2-26.24-18.11Z"/>
        <path class="cls-1" d="M103.6,125.42c-22.77-.64-66.92,57.65-95.48,18.2v16.68c28.23,21.74,69.62-26.53,91.65-26.62,11.31-.05,14.14,10.02,15.89,20.27h4.19s.05,0,.08,0c-2.24-11.68-2.26-28.13-16.35-28.53Z"/>
      </g>
    </g>
  </g>
</svg>