<svg viewBox="0 0 15000 3000" style="shape-rendering:geometricPrecision; text-rendering:geometricPrecision; image-rendering:optimizeQuality; fill-rule:evenodd; clip-rule:evenodd"
    xmlns="http://www.w3.org/2000/svg">
    <defs>
        <linearGradient gradientUnits="userSpaceOnUse" x1="1500" y1="100" x2="1500" y2="2900" id="gradient-1" gradientTransform="matrix(0.719763, -0.69422, 0.838265, 0.869108, -509.806641, 1397.522949)">
            <stop offset="0" style="stop-color: rgb(0, 184, 255);"/>
            <stop offset="1" style="stop-color: rgb(13, 8, 176);"/>
        </linearGradient>
    </defs>
    <path style="fill: url('#gradient-1');" d="M 1597.2 100 C 2370.399 100 2997.2 726.801 2997.2 1500 L 2997.2 2800 C 2997.2 2855.229 2952.429 2900 2897.2 2900 L 1597.2 2900 C 824.001 2900 197.2 2273.199 197.2 1500 C 197.2 726.801 824.001 100 1597.2 100 Z"/>
    <g transform="matrix(4.744372844696045, -0.0000010000001111620804, 0, 4.739628791809082, 2869.8144531250005, 1218.071655273438)" style="">
        <path style="opacity: 0.984; fill: rgb(255, 255, 255);" d="M -353.238 -130.328 C -298.744 -131.941 -259.91 -108.274 -236.738 -59.328 C -224.728 -28.233 -225.561 2.434 -239.238 32.672 C -286.668 -11.113 -340.668 -21.613 -401.238 1.172 C -418.152 8.79 -433.152 19.123 -446.238 32.172 C -447.07 32.86 -447.736 32.693 -448.238 31.672 C -467.915 -20.448 -457.582 -65.614 -417.238 -103.828 C -398.317 -118.631 -376.984 -127.464 -353.238 -130.328 Z"/>
        <path style="opacity: 0.984; fill: rgb(255, 255, 255);" d="M -203.238 -130.328 C -148.744 -131.941 -109.91 -108.274 -86.738 -59.328 C -69.097 -8.062 -79.93 36.105 -119.238 73.172 C -156.934 101.801 -197.601 106.967 -241.238 88.672 C -197.445 41.204 -186.945 -12.796 -209.738 -73.328 C -217.52 -90.571 -228.02 -105.905 -241.238 -119.328 C -229.115 -125.189 -216.448 -128.856 -203.238 -130.328 Z"/>
        <path style="opacity: 0.984; fill: rgb(255, 255, 255);" d="M -353.238 19.672 C -332.893 18.395 -313.56 22.061 -295.238 30.672 C -339.031 78.14 -349.531 132.14 -326.738 192.672 C -318.956 209.915 -308.456 225.249 -295.238 238.672 C -338.88 256.967 -379.547 251.8 -417.238 223.172 C -456.546 186.105 -467.379 141.938 -449.738 90.672 C -430.398 49.489 -398.231 25.822 -353.238 19.672 Z"/>
        <path style="opacity: 0.984; fill: rgb(255, 255, 255);" d="M -298.238 86.672 C -290.798 92.268 -283.465 98.101 -276.238 104.172 C -220.905 139.505 -165.571 139.505 -110.238 104.172 C -103.092 98.527 -96.092 92.694 -89.238 86.672 C -70.943 130.309 -76.109 170.976 -104.738 208.672 C -142.568 248.67 -187.401 259.17 -239.238 240.172 C -283.276 218.933 -306.276 183.767 -308.238 134.672 C -308.066 117.989 -304.733 101.989 -298.238 86.672 Z"/>
    </g>
    <path d="M 4465.996 2512.184 Q 4235.782 2512.184 4051.196 2415.743 Q 3866.61 2319.302 3761.873 2146.123 Q 3657.136 1972.944 3657.136 1753.1 Q 3657.136 1533.256 3761.873 1360.077 Q 3866.61 1186.898 4051.196 1090.457 Q 4235.782 994.016 4465.996 994.016 Q 4677.544 994.016 4843.464 1068.68 Q 5009.384 1143.344 5117.232 1284.376 L 4808.206 1560.218 Q 4673.396 1390.15 4490.884 1390.15 Q 4337.408 1390.15 4244.078 1488.665 Q 4150.748 1587.18 4150.748 1753.1 Q 4150.748 1919.02 4244.078 2017.535 Q 4337.408 2116.05 4490.884 2116.05 Q 4673.396 2116.05 4808.206 1945.982 L 5117.232 2221.824 Q 5009.384 2362.856 4843.464 2437.52 Q 4677.544 2512.184 4465.996 2512.184 Z M 6031.857 1323.782 Q 6241.331 1323.782 6368.882 1450.296 Q 6496.433 1576.81 6496.433 1831.912 L 6496.433 2479 L 6027.709 2479 L 6027.709 1912.798 Q 6027.709 1717.842 5888.751 1717.842 Q 5809.939 1717.842 5761.2 1772.803 Q 5712.461 1827.764 5712.461 1945.982 L 5712.461 2479 L 5243.737 2479 L 5243.737 940.092 L 5712.461 940.092 L 5712.461 1435.778 Q 5843.123 1323.782 6031.857 1323.782 Z M 7207.82 1323.782 Q 7506.476 1323.782 7664.1 1457.555 Q 7821.724 1591.328 7821.724 1869.244 L 7821.724 2479 L 7386.184 2479 L 7386.184 2329.672 Q 7305.298 2499.74 7064.714 2499.74 Q 6929.904 2499.74 6835.537 2453.075 Q 6741.17 2406.41 6692.431 2326.561 Q 6643.692 2246.712 6643.692 2147.16 Q 6643.692 1979.166 6772.28 1892.058 Q 6900.868 1804.95 7162.192 1804.95 L 7350.926 1804.95 Q 7328.112 1672.214 7137.304 1672.214 Q 7060.566 1672.214 6981.754 1696.065 Q 6902.942 1719.916 6846.944 1761.396 L 6697.616 1452.37 Q 6795.094 1392.224 6933.015 1358.003 Q 7070.936 1323.782 7207.82 1323.782 Z M 7205.746 2217.676 Q 7255.522 2217.676 7294.928 2190.714 Q 7334.334 2163.752 7353 2109.828 L 7353 2031.016 L 7236.856 2031.016 Q 7093.75 2031.016 7093.75 2126.42 Q 7093.75 2165.826 7123.823 2191.751 Q 7153.896 2217.676 7205.746 2217.676 Z M 8860.793 2439.594 Q 8755.019 2499.74 8572.507 2499.74 Q 8333.997 2499.74 8205.409 2384.633 Q 8076.821 2269.526 8076.821 2039.312 L 8076.821 1748.952 L 7921.271 1748.952 L 7921.271 1406.742 L 8076.821 1406.742 L 8076.821 1089.42 L 8545.545 1089.42 L 8545.545 1406.742 L 8777.833 1406.742 L 8777.833 1748.952 L 8545.545 1748.952 L 8545.545 2035.164 Q 8545.545 2087.014 8572.507 2116.05 Q 8599.469 2145.086 8643.023 2145.086 Q 8703.169 2145.086 8748.797 2113.976 Z M 10893.31 1344.522 L 10499.25 2479 L 10042.97 2479 L 9870.828 1954.278 L 9692.464 2479 L 9236.184 2479 L 8842.124 1344.522 L 9285.96 1344.522 L 9480.916 1943.908 L 9684.168 1344.522 L 10082.376 1344.522 L 10279.406 1950.13 L 10482.658 1344.522 Z M 11451.226 1323.782 Q 11749.882 1323.782 11907.506 1457.555 Q 12065.13 1591.328 12065.13 1869.244 L 12065.13 2479 L 11629.59 2479 L 11629.59 2329.672 Q 11548.704 2499.74 11308.12 2499.74 Q 11173.31 2499.74 11078.943 2453.075 Q 10984.576 2406.41 10935.837 2326.561 Q 10887.098 2246.712 10887.098 2147.16 Q 10887.098 1979.166 11015.686 1892.058 Q 11144.274 1804.95 11405.598 1804.95 L 11594.332 1804.95 Q 11571.518 1672.214 11380.71 1672.214 Q 11303.972 1672.214 11225.16 1696.065 Q 11146.348 1719.916 11090.35 1761.396 L 10941.022 1452.37 Q 11038.5 1392.224 11176.421 1358.003 Q 11314.342 1323.782 11451.226 1323.782 Z M 11449.152 2217.676 Q 11498.928 2217.676 11538.334 2190.714 Q 11577.74 2163.752 11596.406 2109.828 L 11596.406 2031.016 L 11480.262 2031.016 Q 11337.156 2031.016 11337.156 2126.42 Q 11337.156 2165.826 11367.229 2191.751 Q 11397.302 2217.676 11449.152 2217.676 Z M 13510.709 1344.522 L 13054.429 2479 L 12569.113 2479 L 12112.833 1344.522 L 12594.001 1344.522 L 12822.141 1952.204 L 13066.873 1344.522 Z M 14759.258 1910.724 Q 14759.258 1921.094 14753.036 2020.646 L 13964.916 2020.646 Q 13989.804 2084.94 14047.876 2119.161 Q 14105.948 2153.382 14193.056 2153.382 Q 14267.72 2153.382 14318.533 2134.716 Q 14369.346 2116.05 14429.492 2070.422 L 14674.224 2317.228 Q 14508.304 2499.74 14178.538 2499.74 Q 13973.212 2499.74 13817.662 2424.039 Q 13662.112 2348.338 13577.078 2213.528 Q 13492.044 2078.718 13492.044 1910.724 Q 13492.044 1740.656 13576.041 1606.883 Q 13660.038 1473.11 13806.255 1398.446 Q 13952.472 1323.782 14134.984 1323.782 Q 14307.126 1323.782 14449.195 1392.224 Q 14591.264 1460.666 14675.261 1593.402 Q 14759.258 1726.138 14759.258 1910.724 Z M 14139.132 1643.178 Q 14066.542 1643.178 14018.84 1682.584 Q 13971.138 1721.99 13956.62 1794.58 L 14321.644 1794.58 Q 14307.126 1724.064 14259.424 1683.621 Q 14211.722 1643.178 14139.132 1643.178 Z" style="fill: rgb(255, 255, 255);"/>
</svg>