<?xml version="1.0" encoding="UTF-8"?>
<svg id="Camada_2" xmlns="http://www.w3.org/2000/svg" viewBox="0 0 1007.79 190.99">
  <defs>
    <style>
      .cls-1 {
        fill: #51bcbd;
      }

      .cls-2 {
        fill: #eff3fa;
      }
    </style>
  </defs>
  <g id="Camada_1-2" data-name="Camada_1">
    <g>
      <g>
        <path class="cls-2" d="M297.06,132.92c-6.05,2.72-12.78,4.08-20.19,4.08s-14.2-2.04-20.38-6.11c-6.18-4.07-11.09-9.69-14.73-16.86-3.64-7.16-5.46-15.37-5.46-24.64s1.85-17.35,5.56-24.64c3.7-7.28,8.77-12.97,15.19-17.04,6.42-4.08,13.34-6.11,20.75-6.11,6.79,0,12.81,1.05,18.06,3.15,5.25,2.1,10.47,5.13,15.65,9.08l6.85-17.97c-11.73-9.51-25.75-14.26-42.05-14.26-11.98,0-22.72,2.94-32.23,8.8-9.51,5.87-17.01,14.02-22.51,24.45-5.5,10.44-8.24,22.26-8.24,35.47s2.62,24.76,7.87,35.01c5.25,10.25,12.5,18.22,21.77,23.89,9.26,5.68,19.63,8.52,31.12,8.52,9.51,0,18.37-1.64,26.58-4.91,8.21-3.27,15.4-7.56,21.58-12.87l-7.59-18.52c-5.68,4.94-11.55,8.77-17.6,11.48Z"/>
        <path class="cls-2" d="M386.53,64.39c-6.05,0-11.83,1.48-17.32,4.45-4.5,2.43-8.48,5.36-11.95,8.79V19h-20.75v136.52h20.75v-61.31c2.96-3.46,6.36-6.3,10.19-8.52,3.83-2.22,7.59-3.33,11.3-3.33,5.93,0,10.37,1.88,13.34,5.65,2.96,3.77,4.45,9.29,4.45,16.58v50.94h20.56v-53.72c0-13.83-2.75-23.52-8.24-29.08-5.5-5.56-12.94-8.34-22.32-8.34Z"/>
        <path class="cls-2" d="M509.53,104.21c0-13.09-3.21-23-9.63-29.73-6.42-6.73-15.44-10.1-27.04-10.1-5.06,0-9.76.56-14.08,1.67-4.32,1.11-7.94,2.44-10.84,3.98-2.9,1.55-5.03,2.93-6.39,4.17l6.48,14.08c3.21-2.1,6.67-3.89,10.37-5.37s7.6-2.22,11.67-2.22c5.43,0,9.91,1.61,13.43,4.82,3.52,3.21,5.28,8.83,5.28,16.86-17.66,0-31.46,2.35-41.4,7.04-9.94,4.69-14.91,12.23-14.91,22.6,0,5.44,1.45,10.13,4.35,14.08,2.9,3.95,6.64,6.89,11.21,8.8,4.57,1.91,9.51,2.87,14.82,2.87,5.68,0,11.02-1.14,16.02-3.43,5-2.28,9.04-5.15,12.13-8.61l2.96,10.74,17.6-.93c-.62-7.16-1.3-14.32-2.04-21.49v-29.82ZM488.78,131.63c-2.22,2.96-5.13,5.44-8.71,7.41-3.58,1.98-7.41,2.96-11.48,2.96s-7.38-.99-10.28-2.96c-2.9-1.97-4.35-4.88-4.35-8.71,0-5.56,3.15-9.54,9.45-11.95,6.3-2.41,14.76-3.61,25.38-3.61v16.86Z"/>
        <path class="cls-2" d="M570.1,139.59c-4.45,0-7.81-1.67-10.1-5-2.29-3.33-3.43-7.96-3.43-13.89v-37.05h30.38v-17.04h-30.38v-31.49h-12.97l-7.8,31.49h-12.02v17.04h12.23v40.38c0,10.62,2.41,18.83,7.22,24.64,4.82,5.81,11.85,8.71,21.12,8.71,5.43,0,10.56-1.05,15.37-3.15,4.82-2.1,9.08-4.75,12.78-7.97l-4.63-13.71c-7.16,4.69-13.09,7.04-17.78,7.04Z"/>
        <polygon class="cls-2" points="699.76 122.18 698.09 128.48 697.91 128.48 695.87 122.18 674.57 66.61 660.31 66.61 640.86 122.18 639.19 128.48 639.01 128.48 637.15 122.18 616.78 66.61 593.99 66.61 630.11 155.52 645.49 155.52 664.57 104.58 666.79 97.54 666.98 97.54 669.2 104.58 689.02 155.52 704.58 155.52 739.96 66.61 718.84 66.61 699.76 122.18"/>
        <path class="cls-2" d="M819.42,104.21c0-13.09-3.21-23-9.63-29.73-6.42-6.73-15.44-10.1-27.04-10.1-5.06,0-9.76.56-14.08,1.67-4.32,1.11-7.94,2.44-10.84,3.98-2.9,1.55-5.03,2.93-6.39,4.17l6.48,14.08c3.21-2.1,6.67-3.89,10.37-5.37s7.6-2.22,11.67-2.22c5.43,0,9.91,1.61,13.43,4.82,3.52,3.21,5.28,8.83,5.28,16.86-17.66,0-31.46,2.35-41.4,7.04-9.94,4.69-14.91,12.23-14.91,22.6,0,5.44,1.45,10.13,4.35,14.08,2.9,3.95,6.64,6.89,11.21,8.8,4.57,1.91,9.51,2.87,14.82,2.87,5.68,0,11.02-1.14,16.02-3.43,5-2.28,9.04-5.15,12.13-8.61l2.96,10.74,17.6-.93c-.62-7.16-1.3-14.32-2.04-21.49v-29.82ZM798.68,131.63c-2.22,2.96-5.13,5.44-8.71,7.41-3.58,1.98-7.41,2.96-11.48,2.96s-7.38-.99-10.28-2.96c-2.9-1.97-4.35-4.88-4.35-8.71,0-5.56,3.15-9.54,9.45-11.95,6.3-2.41,14.76-3.61,25.38-3.61v16.86Z"/>
        <polygon class="cls-2" points="878.33 122.18 876.47 128.48 876.1 128.48 874.06 122.18 851.28 66.61 827.94 66.61 867.77 155.52 883.14 155.52 922.41 66.61 900.74 66.61 878.33 122.18"/>
        <path class="cls-2" d="M987.43,138.3c-4.82,1.73-9.39,2.59-13.71,2.59-5.56,0-10.28-1.45-14.17-4.35-3.89-2.9-6.76-6.85-8.61-11.85-1.01-2.74-1.74-5.67-2.2-8.8h57.95c1.85-10.37,1.36-19.48-1.48-27.32-2.84-7.84-7.35-13.83-13.52-17.97-6.18-4.14-13.15-6.21-20.93-6.21-9.02,0-16.86,2.04-23.52,6.11-6.67,4.08-11.73,9.66-15.19,16.76-3.46,7.1-5.19,15.1-5.19,23.99s1.82,16.49,5.46,23.52c3.64,7.04,8.67,12.6,15.1,16.67,6.42,4.08,13.71,6.11,21.86,6.11s15.16-1.27,21.77-3.8c6.6-2.53,11.88-5.77,15.84-9.73l-6.48-12.97c-3.83,3.09-8.15,5.5-12.97,7.22ZM958.71,82.91c3.21-2.22,6.79-3.33,10.74-3.33s7.56,1.05,10.47,3.15c2.9,2.1,5.06,4.94,6.48,8.52,1.42,3.58,1.94,7.59,1.57,12.04h-39.62c.37-3.97,1.26-7.52,2.67-10.65,1.91-4.26,4.47-7.5,7.69-9.72Z"/>
      </g>
      <g>
        <path class="cls-2" d="M122.7,0H48.27C21.65,0,0,21.81,0,48.62v120.47c0,8.08,4.4,15.48,11.47,19.3,3.14,1.7,6.69,2.6,10.27,2.6,4.29,0,8.46-1.27,12.05-3.67l36.43-24.47h52.48c26.62,0,48.27-21.81,48.27-48.62V48.62c0-26.81-21.65-48.62-48.27-48.62ZM167.48,114.23c0,24.87-20.08,45.1-44.77,45.1h-53.54l-37.31,25.06c-3.01,2.01-6.51,3.08-10.11,3.08-3,0-5.98-.75-8.62-2.18-5.94-3.21-9.63-9.42-9.63-16.2V48.62C3.5,23.75,23.58,3.52,48.27,3.52h74.43c24.69,0,44.77,20.23,44.77,45.1v65.6Z"/>
        <g>
          <path class="cls-1" d="M136.32,145.43c-18.82,3.82-4.47-34.34-25.09-36.48-20.62-2.14-60.04,59.94-89.93,14.73-3.88-5.87-8.34-10.73-13.17-14.75v16.3c2.2,2.39,4.28,5.01,6.21,7.88,29.21,43.38,71.29-17.33,93.08-15.93,17.79,1.14,11.47,28.5,18.78,36.31,16.13-2.39,29.37-13.77,34.43-28.88-5.17,7.06-13.11,18.55-24.31,20.82Z"/>
          <path class="cls-1" d="M126.39,76.26c-15.92-5.12-44.7,62.46-77.35,9.93-10.65-17.13-25.6-27.11-40.91-32.79v12.97c12.79,5.7,24.95,14.82,33.99,29.16,31.96,50.7,63.4-15.51,80.49-11.13,17.1,4.38,2.88,34.73,21.7,31.66,7.88-1.29,13.9-6.88,18.54-11.96v-6.64c-4.19,4.02-9.38,7.88-15.89,8.85-18.82,2.83-4.65-24.92-20.57-30.05Z"/>
          <path class="cls-1" d="M130.65,63.68c-15.44-6.24-40.15,54.88-74.47,7.29-12.39-17.17-29.37-27.14-46.14-32.85-.31,1-.58,2.01-.82,3.04,17.37,5.58,34.77,16.19,46.74,35.71,33.34,54.36,59.45-14.59,74.2-8.73,14.75,5.87.62,31.02,19.44,28.44,5.24-.72,9.59-3.27,13.25-6.22v-3.51c-3.37,2.09-7.3,3.77-11.91,4.17-17.88,1.55-5.9-21.56-20.29-27.34Z"/>
          <path class="cls-1" d="M141.65,125.83c-18.82,3.32-4.56-29.63-22.83-33.26-18.27-3.63-52.37,61.2-83.64,12.33-7.39-11.55-16.88-19.56-27.06-25.07v14.1c7.51,4.99,14.43,11.61,20.12,20.34,30.58,47.04,67.34-16.42,86.79-13.53,19.45,2.88,5.14,38.44,23.96,34.87,10.76-2.04,18.35-12.42,23.49-19.01.24-1.85.37-3.73.37-5.64v-.66c-4.98,6.01-11.83,13.87-21.19,15.52Z"/>
          <path class="cls-1" d="M133.39,37.42c-19.61-8.42-44.35,7.72-76.07-1.28-14-3.97-27.18-8.52-39.01-13.08-.71.84-1.4,1.71-2.05,2.61,12.7,5.16,26.58,10.95,40.58,17.07,33.22,14.52,56.89-8.19,75.81-.15,12.62,5.36,11.7,19.09,24.57,21.84,1.99.43,3.87.74,5.63.97v-6.15c-1.29-.33-2.63-.68-4.03-1.09-11.85-3.43-13.15-15.48-25.42-20.75Z"/>
          <path class="cls-1" d="M153.68,79.75c-15.92-.35-8.32-19.51-22-25.14-16.84-6.94-39.7,38.27-75,4.44-13.13-12.58-28.97-21.15-44.25-26.98-.48.99-.92,1.99-1.33,3.02,16.08,5.81,32.54,15.11,45.31,29.96,35.01,40.72,58.59-12.45,74.73-5.87,14.03,5.72,4.24,26.82,21.15,26.24,3.99-.14,7.48-1.14,10.55-2.49v-4.33c-2.73.75-5.77,1.23-9.17,1.15Z"/>
          <path class="cls-1" d="M95.95,141.97c-19.91.66-55.11,35.78-82.44,32.35,1.27,1.28,2.74,2.38,4.37,3.26,2.73,1.47,5.73,2.19,8.72,2.19,3.58,0,7.14-1.04,10.24-3.09l34.06-22.72h39.85c-2.29-6.97-6.3-12.26-14.8-11.98Z"/>
          <path class="cls-1" d="M132.23,46.85c-18.23-7.67-41.14,22.16-75.54,1.58-13.78-8.24-28.31-15.09-41.88-20.63-.44.69-.86,1.4-1.26,2.12,14.43,5.75,29.63,13.51,43.1,23.9,35.11,27.07,57.73-10.31,75.27-3.01,13.32,5.55,7.95,22.82,22.86,24.04,2.94.24,5.62.12,8.06-.19v-4.35c-2.12-.01-4.42-.16-6.9-.52-13.89-2.02-10.74-17.49-23.71-22.94Z"/>
          <path class="cls-1" d="M60.28,12.16c28.03-4.66,55.22-4.04,76.88,5.56,8.06,3.55,14.31,8.34,20.53,12.66-7.28-13.43-21.5-22.57-37.81-22.57H51.1c-7.43,0-14.43,1.9-20.54,5.23,8.78,1.07,18.65.95,29.71-.89Z"/>
          <path class="cls-1" d="M135.82,24.5c-20.98-9.18-47.73-4.59-76.61-4.14-12.72.2-24.05-1.3-34.05-3.81-1.33,1.01-2.61,2.1-3.81,3.26,10.94,3.67,23.28,6.77,36.86,8.58,30.19,4.04,56.04-6.09,76.34,2.71,11.93,5.17,15.41,15.61,26.28,19.65.69.25,1.35.5,2.01.74v-.69c0-2.8-.27-5.53-.78-8.18-9.37-4.71-15.01-13.2-26.24-18.11Z"/>
          <path class="cls-1" d="M103.6,125.42c-22.77-.64-66.92,57.65-95.48,18.2v16.68c28.23,21.74,69.62-26.53,91.65-26.62,11.31-.05,14.14,10.02,15.89,20.27h4.19s.05,0,.08,0c-2.24-11.68-2.26-28.13-16.35-28.53Z"/>
        </g>
      </g>
    </g>
  </g>
</svg>