<svg viewBox="0 0 3000 3000" style="shape-rendering:geometricPrecision; text-rendering:geometricPrecision; image-rendering:optimizeQuality; fill-rule:evenodd; clip-rule:evenodd"
    xmlns="http://www.w3.org/2000/svg">
    <defs>
        <linearGradient gradientUnits="userSpaceOnUse" x1="1500" y1="100" x2="1500" y2="2900" id="gradient-1" gradientTransform="matrix(0.719763, -0.69422, 0.838265, 0.869108, -607.006638, 1397.522949)">
            <stop offset="0" style="stop-color: rgb(0, 184, 255);"/>
            <stop offset="1" style="stop-color: rgb(13, 8, 176);"/>
        </linearGradient>
    </defs>
    <path style="fill: url('#gradient-1');" d="M 1500 100 C 2273.199 100 2900 726.801 2900 1500 L 2900 2800 C 2900 2855.229 2855.229 2900 2800 2900 L 1500 2900 C 726.801 2900 100 2273.199 100 1500 C 100 726.801 726.801 100 1500 100 Z"/>
    <g transform="matrix(4.744372844696045, -0.0000010000001111620804, 0, 4.739628791809082, 2772.6145019531255, 1218.071655273438)" style="">
        <path style="opacity: 0.984; fill: rgb(255, 255, 255);" d="M -353.238 -130.328 C -298.744 -131.941 -259.91 -108.274 -236.738 -59.328 C -224.728 -28.233 -225.561 2.434 -239.238 32.672 C -286.668 -11.113 -340.668 -21.613 -401.238 1.172 C -418.152 8.79 -433.152 19.123 -446.238 32.172 C -447.07 32.86 -447.736 32.693 -448.238 31.672 C -467.915 -20.448 -457.582 -65.614 -417.238 -103.828 C -398.317 -118.631 -376.984 -127.464 -353.238 -130.328 Z"/>
        <path style="opacity: 0.984; fill: rgb(255, 255, 255);" d="M -203.238 -130.328 C -148.744 -131.941 -109.91 -108.274 -86.738 -59.328 C -69.097 -8.062 -79.93 36.105 -119.238 73.172 C -156.934 101.801 -197.601 106.967 -241.238 88.672 C -197.445 41.204 -186.945 -12.796 -209.738 -73.328 C -217.52 -90.571 -228.02 -105.905 -241.238 -119.328 C -229.115 -125.189 -216.448 -128.856 -203.238 -130.328 Z"/>
        <path style="opacity: 0.984; fill: rgb(255, 255, 255);" d="M -353.238 19.672 C -332.893 18.395 -313.56 22.061 -295.238 30.672 C -339.031 78.14 -349.531 132.14 -326.738 192.672 C -318.956 209.915 -308.456 225.249 -295.238 238.672 C -338.88 256.967 -379.547 251.8 -417.238 223.172 C -456.546 186.105 -467.379 141.938 -449.738 90.672 C -430.398 49.489 -398.231 25.822 -353.238 19.672 Z"/>
        <path style="opacity: 0.984; fill: rgb(255, 255, 255);" d="M -298.238 86.672 C -290.798 92.268 -283.465 98.101 -276.238 104.172 C -220.905 139.505 -165.571 139.505 -110.238 104.172 C -103.092 98.527 -96.092 92.694 -89.238 86.672 C -70.943 130.309 -76.109 170.976 -104.738 208.672 C -142.568 248.67 -187.401 259.17 -239.238 240.172 C -283.276 218.933 -306.276 183.767 -308.238 134.672 C -308.066 117.989 -304.733 101.989 -298.238 86.672 Z"/>
    </g>
</svg>